<svg width="64" height="64" viewBox="0 0 64 64" fill="none" xmlns="http://www.w3.org/2000/svg">
  <rect width="64" height="64" rx="20" fill="#5C3B2E"/>
  <path d="M32 15C23.1634 15 16 21.4922 16 29.5C16 35.7091 19.8441 40.9748 25.4277 43.2109C25.1021 44.3528 24.9375 45.5555 24.9375 46.8125C24.9375 49.221 26.379 51 28.75 51H35.25C37.621 51 39.0625 49.221 39.0625 46.8125C39.0625 45.5555 38.8979 44.3528 38.5723 43.2109C44.1559 40.9748 48 35.7091 48 29.5C48 21.4922 40.8366 15 32 15ZM32 21.5C36.1605 21.5 39.5625 24.4021 39.5625 28C39.5625 31.5979 36.1605 34.5 32 34.5C27.8395 34.5 24.4375 31.5979 24.4375 28C24.4375 24.4021 27.8395 21.5 32 21.5Z" fill="#F5EFE7"/>
  <path d="M30.25 41.5H33.75C36.5074 41.5 38.75 43.7426 38.75 46.5C38.75 47.7426 37.7426 48.75 36.5 48.75H27.5C26.2574 48.75 25.25 47.7426 25.25 46.5C25.25 43.7426 27.4926 41.5 30.25 41.5Z" fill="#F5EFE7"/>
</svg>


