<svg width="24" height="24" viewBox="0 0 24 24" fill="none" xmlns="http://www.w3.org/2000/svg">
  <path d="M20.354 14.354C18.8384 17.5933 15.4947 19.75 11.75 19.75C6.64269 19.75 2.5 15.6073 2.5 10.5C2.5 6.75529 4.65674 3.41163 7.896 1.89604C8.24969 1.7267 8.66667 1.84796 8.87496 2.17434C9.08325 2.50072 9.01009 2.92759 8.70161 3.161C7.24241 4.26555 6.25 6.08652 6.25 8.125C6.25 11.8481 9.30187 14.9 13.025 14.9C15.0635 14.9 16.8845 13.9076 17.989 12.4484C18.2224 12.1399 18.6493 12.0667 18.9757 12.275C19.3021 12.4833 19.4234 12.9003 19.254 13.254C19.1187 13.5358 19.1051 13.8629 19.2132 14.1596C19.3213 14.4562 19.5402 14.694 19.8246 14.8212C20.109 14.9483 20.4386 14.9536 20.7275 14.8359C21.0163 14.7181 21.2364 14.4886 21.3317 14.1962C21.427 13.9037 21.3881 13.5793 21.224 13.3183C21.0599 13.0574 20.7874 12.888 20.4801 12.8704C20.1728 12.8529 19.8722 12.9905 19.68 13.236C20.0677 13.5035 20.3689 13.9075 20.509 14.3779C20.6491 14.8484 20.6202 15.3535 20.4267 15.8031C20.2331 16.2527 19.8861 16.6133 19.4482 16.8201C19.0102 17.0269 18.5176 17.0668 18.0485 16.9322C17.5794 16.7976 17.1727 16.4977 16.9106 16.0897C16.6486 15.6816 16.5507 15.1934 16.6364 14.7238C16.722 14.2542 16.9844 13.8447 17.366 13.577" stroke="#5C3B2E" stroke-width="1.5" stroke-linecap="round" stroke-linejoin="round"/>
</svg>


