<svg width="24" height="24" viewBox="0 0 24 24" fill="none" xmlns="http://www.w3.org/2000/svg">
  <path d="M8.75 4.5C8.75 4.08579 8.41421 3.75 8 3.75H6.5C5.25736 3.75 4.25 4.75736 4.25 6V8C4.25 14.2132 9.5368 19.5 15.75 19.5H17.75C18.9926 19.5 20 18.4926 20 17.25V15.75C20 15.3358 19.6642 15 19.25 15H16.75C16.3358 15 16 15.3358 16 15.75V16.25C14.2051 16.25 12.4878 15.5389 11.2395 14.2605C9.96106 13.0123 9.25 11.2949 9.25 9.5H9.75C10.1642 9.5 10.5 9.16421 10.5 8.75V6.25C10.5 5.83579 10.1642 5.5 9.75 5.5H8.75V4.5Z" fill="#5C3B2E"/>
</svg>

