<svg width="24" height="24" viewBox="0 0 24 24" fill="none" xmlns="http://www.w3.org/2000/svg">
  <path d="M12.25 4C8.24594 4 5 7.18041 5 11.0172C5 13.6766 6.54094 15.7812 8.78281 16.5084C8.91781 16.5528 9.01969 16.4491 9.05156 16.3337C9.08406 16.2181 9.38469 15.1591 9.48281 14.8112C9.50406 14.7384 9.48969 14.6612 9.44406 14.6028C8.92094 13.9228 8.61344 13.0247 8.61344 12.0953C8.61344 9.82531 10.3716 7.97344 12.6384 7.97344C14.7219 7.97344 16.0425 9.33437 16.0425 11.3528C16.0425 13.5966 15.0066 15.2428 13.5559 15.2428C12.6575 15.2428 11.9728 14.4934 12.1716 13.6172C12.4209 12.5759 12.8534 11.4634 12.8534 10.6941C12.8534 9.95094 12.4734 9.28156 11.5653 9.28156C10.4759 9.28156 9.66531 10.2366 9.66531 11.6209C9.66531 12.3516 9.85656 12.9337 9.85656 12.9337C9.85656 12.9337 8.62656 18.0009 8.39469 18.9453C8.07406 20.2681 8.28344 21.9978 8.31344 22.1972C8.33156 22.3159 8.46156 22.3622 8.54656 22.2684C8.65844 22.1459 9.83094 20.7984 10.2303 19.5266C10.3662 19.0894 10.9837 17.0431 10.9837 17.0431C11.3659 17.7091 12.3041 18.4134 13.6416 18.4134C16.3766 18.4134 18.75 16.0228 18.75 12.0266C18.75 7.85656 15.4697 4 12.25 4Z" fill="#5C3B2E"/>
</svg>

