<svg width="24" height="24" viewBox="0 0 24 24" fill="none" xmlns="http://www.w3.org/2000/svg">
  <path d="M12 8.5C10.067 8.5 8.5 10.067 8.5 12C8.5 13.933 10.067 15.5 12 15.5C13.933 15.5 15.5 13.933 15.5 12C15.5 10.067 13.933 8.5 12 8.5Z" stroke="#5C3B2E" stroke-width="1.5"/>
  <path d="M19.25 12C19.25 12.4341 19.2064 12.8614 19.1231 13.2775C19.0502 13.6484 19.186 14.0265 19.4665 14.2736L19.7929 14.5649C20.239 14.962 20.2845 15.6511 19.895 16.1017L18.6256 17.5282C18.2487 17.9649 17.6054 18.041 17.1454 17.7111L16.7653 17.4351C16.4692 17.2202 16.0725 17.1836 15.7425 17.3379C15.3464 17.5228 14.9378 17.6855 14.5166 17.8241C14.0246 17.9843 13.6614 18.418 13.6019 18.9358L13.5489 19.4122C13.4893 19.9299 13.032 20.3146 12.51 20.2695H10.5736C10.0517 20.3145 9.59375 19.9296 9.5342 19.4116L9.48119 18.9352C9.42169 18.4175 9.05852 17.9839 8.56644 17.8237C8.14519 17.6852 7.73661 17.5226 7.34052 17.3378C7.01053 17.1835 6.61377 17.2201 6.31776 17.435L5.93761 17.711C5.47755 18.041 4.8344 17.9648 4.45753 17.5282L3.18808 16.1017C2.79863 15.6512 2.84413 14.962 3.29024 14.5649L3.61663 14.2736C3.8975 14.0263 4.03357 13.6475 3.96059 13.2761C3.87739 12.8602 3.83398 12.4334 3.83398 12C3.83398 11.5669 3.87769 11.1398 3.95989 10.7241C4.03276 10.3533 3.89694 9.97492 3.61643 9.7279L3.28999 9.43666C2.84387 9.03955 2.79837 8.35033 3.18783 7.89981L4.45728 6.47332C4.83416 6.03665 5.47741 5.96064 5.93748 6.29064L6.31762 6.56662C6.61375 6.78153 7.01047 6.81813 7.34049 6.66385C7.73659 6.479 8.14518 6.31638 8.56642 6.17783C9.0585 6.0176 9.42169 5.58402 9.48119 5.06632L9.5342 4.58988C9.59375 4.07193 10.0517 3.68696 10.5736 3.73201H12.51C13.032 3.68701 13.4899 4.0718 13.5494 4.58969L13.6024 5.06614C13.6619 5.58384 14.0245 6.01742 14.5165 6.17765C14.9377 6.31619 15.3462 6.47882 15.7423 6.66369C16.0723 6.81796 16.4691 6.78131 16.7652 6.56638L17.1453 6.2904C17.6053 5.96046 18.2486 6.03654 18.6255 6.47321L19.895 7.89969C20.2845 8.35021 20.239 9.03946 19.7929 9.43654L19.4665 9.72779C19.1858 9.97482 19.0498 10.3532 19.1227 10.7241C19.2059 11.1399 19.25 11.5668 19.25 12Z" stroke="#5C3B2E" stroke-width="1.5" stroke-linejoin="round"/>
</svg>

