<svg width="24" height="24" viewBox="0 0 24 24" fill="none" xmlns="http://www.w3.org/2000/svg">
  <path d="M16.5 7.25C17.3 7.25 18.0687 7.47685 18.7363 7.90334C19.4039 8.32983 19.9448 8.93839 20.2994 9.66496C19.3222 9.73249 18.3506 9.49728 17.5167 8.99365C16.6828 8.49002 16.0266 7.74337 15.6395 6.85755V15.25C15.6395 17.7353 13.6148 20 11 20C8.3852 20 6.36047 17.7353 6.36047 15.25C6.36047 12.7647 8.3852 10.5 11 10.5C11.3473 10.5 11.6878 10.5343 12.0176 10.6006V13.0277C11.7223 12.8579 11.3695 12.7604 11 12.7604C9.84282 12.7604 8.90524 13.7985 8.90524 15.0276C8.90524 16.2568 9.84282 17.2949 11 17.2949C12.1572 17.2949 13.0948 16.2568 13.0948 15.0276V4H15.6395C15.6395 5.79349 16.9065 7.25 18.5 7.25H16.5Z" fill="#5C3B2E"/>
</svg>

