<svg width="24" height="24" viewBox="0 0 24 24" fill="none" xmlns="http://www.w3.org/2000/svg">
  <path d="M20.75 6.4375C20.1254 6.71168 19.4634 6.88883 18.7812 6.9625C19.4954 6.53672 20.0327 5.86789 20.2812 5.0625C19.6097 5.45521 18.8675 5.73875 18.0844 5.89844C17.7278 5.52329 17.2773 5.2405 16.7735 5.07675C16.2697 4.91301 15.7288 4.87469 15.2059 4.96694C14.6831 5.05919 14.1963 5.27846 13.7946 5.60381C13.393 5.92916 13.0901 6.34968 12.9178 6.81946C12.7455 7.28924 12.7103 7.79184 12.8156 8.275C11.4935 8.20891 10.1975 7.84926 9.02044 7.22445C7.84337 6.59964 6.81387 5.72575 6 4.65625C6 4.65625 3.0625 11.5625 10 14.5C8.39216 15.5944 6.45911 16.1433 4.5 16.0625C11.4375 20 19.75 16.0625 19.75 8.25C19.7494 8.02357 19.7312 7.79758 19.6953 7.57469C20.395 6.96953 20.8816 6.19515 20.75 6.4375Z" fill="#5C3B2E"/>
</svg>

